Musala Papel.ufo
<glyph name="ampersand" format="2">
	<advance width="645.74"/>
	<unicode hex="0026"/>
	<guideline x="617.3" y="348.48" angle="270"/>
	<outline>
		<contour>
			<point x="588.811" y="0" type="curve"/>
			<point x="649.23283" y="74.00258" type="line"/>
			<point x="388.61425" y="202.14069"/>
			<point x="188.43692" y="382.62052"/>
			<point x="188.43692" y="578.74327" type="curve" smooth="yes"/>
			<point x="188.43692" y="653.39303"/>
			<point x="244.53894" y="724.027"/>
			<point x="361.374" y="724.027" type="curve" smooth="yes"/>
			<point x="414.809" y="724.027"/>
			<point x="452.13707" y="709.28511"/>
			<point x="468.385" y="696.685" type="curve"/>
			<point x="516.191" y="745.183" type="line"/>
			<point x="496.42253" y="765.24564"/>
			<point x="429.88534" y="800.63"/>
			<point x="350.18939" y="800.63" type="curve" smooth="yes"/>
			<point x="185.94087" y="800.63"/>
			<point x="96.01592" y="701.07889"/>
			<point x="96.01591" y="587.13844" type="curve" smooth="yes"/>
			<point x="96.01591" y="344.94141"/>
			<point x="308.03516" y="146.57819"/>
		</contour>
		<contour>
			<point x="245.30187" y="-11" type="curve" smooth="yes"/>
			<point x="437.43859" y="-11"/>
			<point x="604.37753" y="191.0476"/>
			<point x="538.14091" y="381.7619" type="curve" smooth="yes"/>
			<point x="512.521" y="455.529" type="line"/>
			<point x="432.101" y="442.868" type="line"/>
			<point x="445.23793" y="404.12271"/>
			<point x="454.48906" y="353.70216"/>
			<point x="454.48906" y="309.31667" type="curve" smooth="yes"/>
			<point x="454.48906" y="142"/>
			<point x="354.78068" y="62"/>
			<point x="256.132" y="62" type="curve" smooth="yes"/>
			<point x="155.01281" y="62"/>
			<point x="107.26" y="138.95184"/>
			<point x="107.26" y="221.83984" type="curve" smooth="yes"/>
			<point x="107.26" y="357.90884"/>
			<point x="217.75891" y="409.922"/>
			<point x="269.343" y="409.922" type="curve" smooth="yes"/>
			<point x="636.583" y="409.922" type="line"/>
			<point x="636.583" y="482.922" type="line"/>
			<point x="300.57531" y="482.858" type="line"/>
			<point x="103.70032" y="470.81813"/>
			<point x="4.72" y="345.73047"/>
			<point x="4.72" y="198.401" type="curve" smooth="yes"/>
			<point x="4.72" y="87"/>
			<point x="123.27187" y="-11"/>
		</contour>
	</outline>
</glyph>
<glyph name="comma" format="2">
	<advance width="254.02"/>
	<unicode hex="002C"/>
	<outline>
		<contour>
			<point x="93.55163" y="-185.51208" type="curve"/>
			<point x="44.30494" y="-160.44072" type="line"/>
			<point x="83.93902" y="-86.6991"/>
			<point x="91.1407" y="24.02854"/>
			<point x="77.66239" y="91.56905" type="curve"/>
			<point x="191.703" y="126.113" type="line"/>
			<point x="208.19057" y="57.83724"/>
			<point x="195.84997" y="-50.63393"/>
		</contour>
	</outline>
</glyph>
<glyph name="period" format="2">
	<advance width="243.78"/>
	<unicode hex="002E"/>
	<outline>
		<contour>
			<point x="190.9063" y="59.98791" type="curve"/>
			<point x="190.9063" y="18.20781"/>
			<point x="163.05843" y="-11.062"/>
			<point x="120.45459" y="-11.062" type="curve"/>
			<point x="78.23174" y="-11.062"/>
			<point x="50.002" y="18.20781"/>
			<point x="50.002" y="59.98791" type="curve"/>
			<point x="50.002" y="101.768"/>
			<point x="78.23174" y="131.03694"/>
			<point x="120.45459" y="131.03694" type="curve"/>
			<point x="162.67831" y="131.03694"/>
			<point x="190.9063" y="101.768"/>
		</contour>
	</outline>
</glyph>
<glyph name="five" format="2">
	<advance width="572.04"/>
	<unicode hex="0035"/>
	<guideline x="530.39" y="440.85" angle="269"/>
	<outline>
		<contour>
			<point x="247.803" y="-12.145" type="curve" smooth="yes"/>
			<point x="405.08401" y="-12.145"/>
			<point x="522.044" y="96.301"/>
			<point x="522.044" y="249.961" type="curve" smooth="yes"/>
			<point x="522.044" y="396.9"/>
			<point x="430.85342" y="468.644"/>
			<point x="302.9242" y="468.644" type="curve" smooth="yes"/>
			<point x="264.697" y="468.644"/>
			<point x="222.405" y="460.574"/>
			<point x="192.159" y="452.479" type="curve"/>
			<point x="203.525" y="670.564" type="line"/>
			<point x="76.525" y="661.564" type="line"/>
			<point x="82.51" y="591.757"/>
			<point x="75.176" y="463.272"/>
			<point x="56.441" y="378.684" type="curve"/>
			<point x="98.017" y="360.658" type="line"/>
			<point x="130.47463" y="371.07599"/>
			<point x="221.904" y="393.457"/>
			<point x="262.948" y="393.457" type="curve" smooth="yes"/>
			<point x="351.892" y="393.457"/>
			<point x="390.278" y="347.575"/>
			<point x="390.278" y="246.631" type="curve" smooth="yes"/>
			<point x="390.278" y="190.45"/>
			<point x="370.498" y="130.803"/>
			<point x="351.946" y="102.575" type="curve"/>
			<point x="338.553" y="92.974"/>
			<point x="305.261" y="77.481"/>
			<point x="257.08448" y="77.481" type="curve" smooth="yes"/>
			<point x="190.73" y="77.481"/>
			<point x="145.771" y="116.642"/>
			<point x="119.815" y="138.592" type="curve"/>
			<point x="108.632" y="132.781"/>
			<point x="52.057" y="83.563"/>
			<point x="50.158" y="75.339" type="curve" smooth="yes"/>
			<point x="48.4" y="67.724"/>
			<point x="61.538" y="39.736"/>
			<point x="64.258" y="32.412" type="curve"/>
			<point x="100.359" y="7.002"/>
			<point x="184.958" y="-12.145"/>
		</contour>
		<contour>
			<point x="469.651" y="658.564" type="curve"/>
			<point x="513.651" y="762.564" type="line"/>
			<point x="361.481" y="747.927"/>
			<point x="253.948" y="747.298"/>
			<point x="151.485" y="762.775" type="curve"/>
			<point x="76.525" y="661.564" type="line"/>
			<point x="255.567" y="652.564"/>
			<point x="340.609" y="649.564"/>
		</contour>
	</outline>
</glyph>
<glyph name="six" format="2">
	<advance width="629"/>
	<unicode hex="0036"/>
	<outline>
		<contour>
			<point x="50" y="342.69058" type="curve" smooth="yes"/>
			<point x="50" y="159.2152"/>
			<point x="121" y="-12"/>
			<point x="310" y="-12" type="curve" smooth="yes"/>
			<point x="445" y="-12"/>
			<point x="579" y="91"/>
			<point x="579" y="245" type="curve" smooth="yes"/>
			<point x="579" y="423.89915"/>
			<point x="465.998" y="475.491"/>
			<point x="342.115" y="465" type="curve" smooth="yes"/>
			<point x="276.156" y="459.414"/>
			<point x="208.247" y="438.938"/>
			<point x="176" y="429" type="curve"/>
			<point x="176" y="540.02723"/>
			<point x="233.972" y="665"/>
			<point x="338.632" y="665" type="curve" smooth="yes"/>
			<point x="378.632" y="665"/>
			<point x="426" y="654.727"/>
			<point x="480" y="620.727" type="curve"/>
			<point x="485.881" y="629.736"/>
			<point x="535.935" y="679.055"/>
			<point x="535.935" y="690.005" type="curve" smooth="yes"/>
			<point x="535.935" y="697.936"/>
			<point x="522.55" y="729.586"/>
			<point x="510.237" y="744.316" type="curve"/>
			<point x="461.934" y="759.784"/>
			<point x="413.518" y="769.497"/>
			<point x="346.411" y="769.497" type="curve" smooth="yes"/>
			<point x="126.046" y="769.497"/>
			<point x="50" y="524.855"/>
		</contour>
		<contour>
			<point x="224.338" y="371.473"/>
			<point x="283.263" y="384"/>
			<point x="325" y="384" type="curve" smooth="yes"/>
			<point x="404" y="384"/>
			<point x="447" y="353"/>
			<point x="447" y="242" type="curve" smooth="yes"/>
			<point x="447" y="185"/>
			<point x="435" y="129"/>
			<point x="416" y="101" type="curve"/>
			<point x="403" y="91"/>
			<point x="376.177" y="77"/>
			<point x="318.755" y="77" type="curve" smooth="yes"/>
			<point x="196.826" y="77"/>
			<point x="178" y="229.13707"/>
			<point x="178" y="359" type="curve"/>
		</contour>
	</outline>
</glyph>
<glyph name="A" format="2">
	<advance width="666.11"/>
	<unicode hex="0041"/>
	<guideline x="679.59" y="780" angle="0"/>
	<anchor x="390" y="780" name="top"/>
	<anchor x="320" y="0" name="bottom"/>
	<anchor x="597" y="10" name="ogonek"/>
	<outline>
		<contour>
			<point x="117.553" y="0" type="line"/>
			<point x="327.636" y="663.435" type="line"/>
			<point x="335.786" y="663.435" type="line"/>
			<point x="541.489" y="0.719" type="line"/>
			<point x="656.114" y="0" type="line"/>
			<point x="605.496" y="130.818" type="line"/>
			<point x="395.853" y="757.385" type="line"/>
			<point x="274.608" y="757.385" type="line"/>
			<point x="63.092" y="139.785" type="line"/>
			<point x="10" y="0.719" type="line"/>
		</contour>
		<contour>
			<point x="165.56" y="262" type="line"/>
			<point x="475.56" y="262" type="line"/>
			<point x="475.56" y="333" type="line"/>
			<point x="165.56" y="333" type="line"/>
		</contour>
	</outline>
</glyph>
<glyph name="B" format="2">
	<advance width="637"/>
	<unicode hex="0042"/>
	<outline>
		<contour>
			<point x="65.003" y="0" type="curve"/>
			<point x="171.003" y="0" type="line" smooth="yes"/>
			<point x="315.003" y="0"/>
			<point x="383.003" y="7"/>
			<point x="434.003" y="22" type="curve" smooth="yes"/>
			<point x="495.003" y="40"/>
			<point x="572.003" y="100"/>
			<point x="572.003" y="221" type="curve" smooth="yes"/>
			<point x="572.003" y="322"/>
			<point x="493.003" y="381"/>
			<point x="414.003" y="388" type="curve"/>
			<point x="473.003" y="413"/>
			<point x="547.003" y="457"/>
			<point x="547.003" y="554" type="curve" smooth="yes"/>
			<point x="547.003" y="737.4394"/>
			<point x="361.53203" y="785.2529"/>
			<point x="179.003" y="767" type="curve" smooth="yes"/>
			<point x="144.93841" y="763.59354"/>
			<point x="110.003" y="757"/>
			<point x="66.003" y="750" type="curve"/>
			<point x="66.003" y="750"/>
			<point x="75.003" y="583"/>
			<point x="75.003" y="583" type="curve"/>
			<point x="77.003" y="154" type="line"/>
			<point x="77.003" y="154"/>
			<point x="65.003" y="0"/>
		</contour>
		<contour>
			<point x="276.003" y="91" type="curve" smooth="yes"/>
			<point x="254.003" y="91"/>
			<point x="216.003" y="93"/>
			<point x="181.003" y="95" type="curve"/>
			<point x="181.003" y="356" type="line"/>
			<point x="243.003" y="356" type="line"/>
			<point x="315.003" y="356"/>
			<point x="465.003" y="351"/>
			<point x="465.003" y="228" type="curve" smooth="yes"/>
			<point x="465.003" y="91"/>
			<point x="341.003" y="91"/>
		</contour>
		<contour>
			<point x="222.003" y="423" type="curve" smooth="yes"/>
			<point x="207.003" y="423"/>
			<point x="194.003" y="424"/>
			<point x="181.003" y="424" type="curve"/>
			<point x="181.003" y="673" type="line"/>
			<point x="200.003" y="676"/>
			<point x="232.37579" y="681"/>
			<point x="263.003" y="681" type="curve" smooth="yes"/>
			<point x="346.003" y="681"/>
			<point x="440.003" y="673"/>
			<point x="440.003" y="554" type="curve" smooth="yes"/>
			<point x="440.003" y="429"/>
			<point x="317.003" y="423"/>
		</contour>
	</outline>
</glyph>
<glyph name="E" format="2">
	<advance width="598"/>
	<unicode hex="0045"/>
	<anchor x="302" y="780" name="top"/>
	<anchor x="272" y="0" name="bottom"/>
	<anchor x="493" y="10" name="ogonek"/>
	<anchor x="16" y="800" name="topleft"/>
	<outline>
		<contour>
			<point x="144" y="0" type="line"/>
			<point x="538" y="0" type="line"/>
			<point x="538" y="87" type="line"/>
			<point x="422" y="73" type="line"/>
			<point x="144" y="73" type="line"/>
		</contour>
		<contour>
			<point x="134" y="342" type="line"/>
			<point x="459" y="342" type="line"/>
			<point x="459" y="414" type="line"/>
			<point x="134" y="414" type="line"/>
		</contour>
		<contour>
			<point x="60" y="0.385" type="line"/>
			<point x="177" y="0.385" type="line"/>
			<point x="177" y="719.385" type="line"/>
			<point x="140" y="685.385" type="line"/>
			<point x="140" y="685.385"/>
			<point x="410" y="685.385"/>
			<point x="410" y="685.385" type="curve"/>
			<point x="514" y="673.385" type="line"/>
			<point x="514" y="757.385" type="line"/>
			<point x="60" y="757.385" type="line"/>
			<point x="60" y="757.385"/>
			<point x="72" y="588.385"/>
			<point x="72" y="588.385" type="curve"/>
			<point x="72" y="154.385" type="line"/>
		</contour>
	</outline>
</glyph>
<glyph name="G" format="2">
	<advance width="687.13"/>
	<unicode hex="0047"/>
	<outline>
		<contour>
			<point x="374" y="323" type="line"/>
			<point x="627.133" y="323" type="line"/>
			<point x="637.133" y="395" type="line"/>
			<point x="374" y="395" type="line"/>
		</contour>
		<contour>
			<point x="547.36435" y="110.59869" type="line"/>
			<point x="506.16213" y="85.74326"/>
			<point x="459.52884" y="64.681"/>
			<point x="403.365" y="64.681" type="curve" smooth="yes"/>
			<point x="259.532" y="64.681"/>
			<point x="177.65" y="168.196"/>
			<point x="177.65" y="379.892" type="curve" smooth="yes"/>
			<point x="177.65" y="598.87"/>
			<point x="255.335" y="691.227"/>
			<point x="409.939" y="691.227" type="curve" smooth="yes"/>
			<point x="495.539" y="691.227"/>
			<point x="555.059" y="658.831"/>
			<point x="577.58" y="637.483" type="curve"/>
			<point x="632.07" y="709.574" type="line"/>
			<point x="592.32" y="736.135"/>
			<point x="521.336" y="770.912"/>
			<point x="409.693" y="770.912" type="curve" smooth="yes"/>
			<point x="210.322" y="770.912"/>
			<point x="60.003" y="647.795"/>
			<point x="60.003" y="362.097" type="curve" smooth="yes"/>
			<point x="60.003" y="116.99"/>
			<point x="205.322" y="-11"/>
			<point x="403.178" y="-11" type="curve" smooth="yes"/>
			<point x="490.539" y="-11"/>
			<point x="566.227" y="29.85891"/>
			<point x="627.133" y="74.66491" type="curve"/>
			<point x="627.133" y="341" type="line"/>
			<point x="523.133" y="380.174" type="line"/>
			<point x="523.051" y="91.90843" type="line"/>
		</contour>
	</outline>
</glyph>
<glyph name="J" format="2">
	<advance width="251"/>
	<unicode hex="004A"/>
	<guideline x="-52.53" y="-102.96" angle="0"/>
	<outline>
		<contour>
			<point x="-70.00443" y="-27" type="curve"/>
			<point x="-38.00443" y="-103" type="line"/>
			<point x="72.0504" y="-62.04937"/>
			<point x="184.99557" y="-16.22666"/>
			<point x="184.99557" y="103" type="curve" smooth="yes"/>
			<point x="184.99557" y="133"/>
			<point x="185.99557" y="757"/>
			<point x="185.99557" y="757" type="curve"/>
			<point x="185.99557" y="757"/>
			<point x="69.99557" y="757"/>
			<point x="69.99557" y="757" type="curve"/>
			<point x="81.99557" y="590" type="line"/>
			<point x="82.99557" y="117.17494" type="line" smooth="yes"/>
			<point x="83.16142" y="38.26295"/>
			<point x="-22.00443" y="-4"/>
		</contour>
	</outline>
</glyph>
<glyph name="L" format="2">
	<advance width="636.57"/>
	<unicode hex="004C"/>
	<outline>
		<contour>
			<point x="99.995" y="0" type="line"/>
			<point x="586.57" y="0" type="line"/>
			<point x="586.57" y="84" type="line"/>
			<point x="480.5368" y="72.68964" type="line"/>
			<point x="193.57" y="72" type="line"/>
			<point x="216.57" y="50" type="line"/>
			<point x="216.288" y="757.373" type="line"/>
			<point x="100.083" y="757.471" type="line"/>
			<point x="111.985" y="588.414" type="line"/>
			<point x="111.995" y="153.611" type="line"/>
		</contour>
	</outline>
</glyph>
<glyph name="M" format="2">
	<advance width="988.57"/>
	<unicode hex="004D"/>
	<outline>
		<contour>
			<point x="225.86388" y="535.54514" type="line"/>
			<point x="203.94" y="626" type="line"/>
			<point x="192.94" y="0" type="line"/>
			<point x="99.995" y="0" type="line"/>
			<point x="111.995" y="153.611" type="line"/>
			<point x="113.083" y="758.33722" type="line"/>
			<point x="246.36261" y="758.21022" type="line"/>
			<point x="515.24" y="73" type="line"/>
			<point x="476.45147" y="73" type="line"/>
			<point x="737.3325" y="757.38477" type="line"/>
			<point x="876.94534" y="757.38477" type="line"/>
			<point x="876.572" y="153.611" type="line"/>
			<point x="888.572" y="0" type="line"/>
			<point x="771.778" y="0" type="line"/>
			<point x="772.778" y="627" type="line"/>
			<point x="746.92029" y="540.92619" type="line"/>
			<point x="536.37408" y="0" type="line"/>
			<point x="426.4086" y="0" type="line"/>
		</contour>
	</outline>
</glyph>
<glyph name="U" format="2">
	<advance width="674.05"/>
	<unicode hex="0055"/>
	<anchor x="345.13682" y="777" name="top"/>
	<anchor x="367" y="0" name="bottom"/>
	<anchor x="629" y="10" name="ogonek"/>
	<anchor x="674.83" y="800" name="topright"/>
	<outline>
		<contour>
			<point x="277" y="-11" type="curve" smooth="yes"/>
			<point x="396" y="-11"/>
			<point x="532" y="121"/>
			<point x="532" y="121" type="curve"/>
			<point x="506" y="179" type="line"/>
			<point x="472.30453" y="147"/>
			<point x="372.17691" y="83"/>
			<point x="309" y="83" type="curve" smooth="yes"/>
			<point x="230" y="83"/>
			<point x="178.17001" y="123.36577"/>
			<point x="178" y="215.43767" type="curve" smooth="yes"/>
			<point x="177" y="757" type="line"/>
			<point x="177" y="757"/>
			<point x="65" y="757"/>
			<point x="65" y="757" type="curve"/>
			<point x="65" y="757"/>
			<point x="78" y="588"/>
			<point x="78" y="588" type="curve"/>
			<point x="79" y="141.88829" type="line" smooth="yes"/>
			<point x="79.17613" y="60.49506"/>
			<point x="159.41487" y="-11"/>
		</contour>
		<contour>
			<point x="495" y="0" type="line"/>
			<point x="609" y="0" type="line"/>
			<point x="610" y="0"/>
			<point x="597" y="154"/>
			<point x="597" y="154" type="curve"/>
			<point x="597" y="589" type="line"/>
			<point x="597" y="589"/>
			<point x="609" y="757"/>
			<point x="609" y="757" type="curve"/>
			<point x="609" y="757"/>
			<point x="495" y="757"/>
			<point x="495" y="757" type="curve"/>
		</contour>
	</outline>
</glyph>
<glyph name="W" format="2">
	<advance width="1038.84"/>
	<unicode hex="0057"/>
	<outline>
		<contour>
			<point x="463.561" y="710.385" type="line"/>
			<point x="299.478" y="99.95" type="line"/>
			<point x="285.328" y="99.95" type="line"/>
			<point x="122.625" y="756.666" type="line"/>
			<point x="10" y="757.385" type="line"/>
			<point x="62.618" y="618.567" type="line"/>
			<point x="224.261" y="0" type="line"/>
			<point x="353.506" y="0" type="line"/>
			<point x="519.7876" y="576.98265" type="line"/>
			<point x="680.98795" y="0" type="line"/>
			<point x="810.23295" y="0" type="line"/>
			<point x="973.74895" y="609.6" type="line"/>
			<point x="1028.84095" y="756.666" type="line"/>
			<point x="923.28795" y="757.385" type="line"/>
			<point x="756.20495" y="99.95" type="line"/>
			<point x="742.05495" y="99.95" type="line"/>
			<point x="582.35195" y="709.666" type="line"/>
		</contour>
	</outline>
</glyph>
<glyph name="X" format="2">
	<advance width="689.12"/>
	<unicode hex="0058"/>
	<guideline x="-341.39" y="551.05" angle="270"/>
	<guideline x="-872.9" y="561.08" angle="270"/>
	<guideline x="649.12" y="777.75" angle="270"/>
	<guideline x="69.17" y="777.75" angle="270"/>
	<outline>
		<contour>
			<point x="534.564" y="-0.369" type="line"/>
			<point x="650.117" y="0.049" type="line"/>
			<point x="581.68765" y="113.50691" type="line"/>
			<point x="199.02342" y="757.385" type="line"/>
			<point x="87.08427" y="757.385" type="line"/>
		</contour>
		<contour>
			<point x="184.628" y="0.049" type="line"/>
			<point x="366.424" y="355.174" type="line"/>
			<point x="311.05952" y="405.53293" type="line"/>
			<point x="136.19028" y="111.35595" type="line"/>
			<point x="69.002" y="-0.369" type="line"/>
		</contour>
		<contour>
			<point x="509.51069" y="757.385" type="line"/>
			<point x="340.71469" y="410.65009" type="line"/>
			<point x="394.8165" y="362.67269" type="line"/>
			<point x="625.13669" y="757.803" type="line"/>
		</contour>
	</outline>
</glyph>
<glyph name="a" format="2">
	<advance width="595.57"/>
	<unicode hex="0061"/>
	<anchor x="319" y="600" name="top"/>
	<anchor x="319" y="0" name="bottom"/>
	<anchor x="540" y="10" name="ogonek"/>
	<outline>
		<contour>
			<point x="67.5177" y="520.06547" type="curve"/>
			<point x="107.79839" y="450.58513" type="line"/>
			<point x="147.03603" y="476.14136"/>
			<point x="218.0344" y="520"/>
			<point x="308.003" y="520" type="curve" smooth="yes"/>
			<point x="383.042" y="520"/>
			<point x="429.003" y="487.62109"/>
			<point x="429.003" y="420.73" type="curve" smooth="yes"/>
			<point x="429.003" y="100.1" type="line"/>
			<point x="457.003" y="0" type="line"/>
			<point x="535.5652" y="0" type="line"/>
			<point x="529.785" y="116.283" type="line"/>
			<point x="529.79" y="397.791" type="line"/>
			<point x="529.79" y="552.29883"/>
			<point x="454.19977" y="600"/>
			<point x="306.003" y="600" type="curve" smooth="yes"/>
			<point x="225.96126" y="600"/>
			<point x="130.53603" y="560.63997"/>
		</contour>
		<contour>
			<point x="266.93219" y="-11" type="curve" smooth="yes"/>
			<point x="331.45" y="-11"/>
			<point x="442.582" y="54.016"/>
			<point x="488.582" y="84.016" type="curve"/>
			<point x="463.582" y="143.273" type="line"/>
			<point x="435.414" y="121.273"/>
			<point x="336.45559" y="68"/>
			<point x="260.00859" y="68" type="curve" smooth="yes"/>
			<point x="189.0745" y="68"/>
			<point x="144.003" y="91.51"/>
			<point x="144.003" y="174.042" type="curve" smooth="yes"/>
			<point x="144.003" y="259.51"/>
			<point x="208.93219" y="280.168"/>
			<point x="275.141" y="280.168" type="curve" smooth="yes"/>
			<point x="358.99859" y="280.168"/>
			<point x="435.414" y="253.345"/>
			<point x="453.74" y="243.372" type="curve"/>
			<point x="460.919" y="310" type="line"/>
			<point x="438.101" y="318.9"/>
			<point x="378.5025" y="347"/>
			<point x="272.141" y="347" type="curve" smooth="yes"/>
			<point x="122.31" y="347"/>
			<point x="40.003" y="282.114"/>
			<point x="40.003" y="164" type="curve" smooth="yes"/>
			<point x="40.003" y="32"/>
			<point x="165.34119" y="-11"/>
		</contour>
	</outline>
</glyph>
<glyph name="d" format="2">
	<advance width="648.4"/>
	<unicode hex="0064"/>
	<outline>
		<contour>
			<point x="303.65183" y="-11" type="curve" smooth="yes"/>
			<point x="434.16524" y="-11"/>
			<point x="476.894" y="54.621"/>
			<point x="522.894" y="80.812" type="curve"/>
			<point x="494.53865" y="133.69499" type="line"/>
			<point x="469.53865" y="110.69499"/>
			<point x="409.80213" y="64.957"/>
			<point x="331.01784" y="64.957" type="curve" smooth="yes"/>
			<point x="254.11084" y="64.957"/>
			<point x="155.854" y="90.97436"/>
			<point x="155.854" y="300" type="curve" smooth="yes"/>
			<point x="155.854" y="509.48331"/>
			<point x="261.278" y="528.043"/>
			<point x="328.278" y="528.043" type="curve" smooth="yes"/>
			<point x="431.07351" y="528.043"/>
			<point x="474.461" y="489"/>
			<point x="494.461" y="476" type="curve"/>
			<point x="516.591" y="551.878" type="line"/>
			<point x="480.19" y="571.878"/>
			<point x="431.82431" y="600"/>
			<point x="325.278" y="600" type="curve" smooth="yes"/>
			<point x="204.563" y="600"/>
			<point x="49.999" y="537.043"/>
			<point x="49.999" y="282.522" type="curve" smooth="yes"/>
			<point x="49.999" y="31.11305"/>
			<point x="219.62183" y="-11"/>
		</contour>
		<contour>
			<point x="588.13883" y="837" type="line"/>
			<point x="480.19" y="827" type="line"/>
			<point x="480.19" y="84.695" type="line"/>
			<point x="505.003" y="0" type="line"/>
			<point x="588.40311" y="0.413" type="line"/>
			<point x="582.054" y="116.779" type="line"/>
			<point x="582.065" y="721.60305" type="line"/>
		</contour>
	</outline>
</glyph>
<glyph name="f" format="2">
	<advance width="471.17"/>
	<unicode hex="0066"/>
	<outline>
		<contour>
			<point x="98.76" y="-0.182" type="line"/>
			<point x="209.422" y="-0.182" type="line"/>
			<point x="213.34" y="558.8125" type="line"/>
			<point x="213.34" y="583.396"/>
			<point x="197.096" y="635.10216"/>
			<point x="197.096" y="675.75" type="curve" smooth="yes"/>
			<point x="197.096" y="714.80078"/>
			<point x="227.48815" y="760.012"/>
			<point x="287.55937" y="760.012" type="curve" smooth="yes"/>
			<point x="339.69542" y="760.012"/>
			<point x="371.254" y="745.278"/>
			<point x="397.362" y="722.337" type="curve"/>
			<point x="441.168" y="767.835" type="line"/>
			<point x="419.5139" y="796.84718"/>
			<point x="354.42801" y="836.818"/>
			<point x="295.38101" y="836.818" type="curve" smooth="yes"/>
			<point x="174.99744" y="836.818"/>
			<point x="99.64826" y="774.01796"/>
			<point x="99.64826" y="664.48175" type="curve" smooth="yes"/>
			<point x="99.64826" y="620.46196"/>
			<point x="110.28" y="566.56537"/>
			<point x="110.28" y="539.89062" type="curve"/>
			<point x="110.28" y="116.779" type="line"/>
		</contour>
		<contour>
			<point x="40.003" y="520.179" type="line"/>
			<point x="373.98" y="520.179" type="line"/>
			<point x="373.98" y="588.179" type="line"/>
			<point x="198.018" y="588.115" type="line"/>
			<point x="40.003" y="575.851" type="line"/>
		</contour>
	</outline>
</glyph>
<glyph name="g" format="2">
	<advance width="625.48"/>
	<unicode hex="0067"/>
	<outline>
		<contour>
			<point x="310.89595" y="-210.134" type="curve" smooth="yes"/>
			<point x="421.56963" y="-210.134"/>
			<point x="568.26904" y="-158.5037"/>
			<point x="568.26904" y="-31.18911" type="curve" smooth="yes"/>
			<point x="568.26904" y="56.38294"/>
			<point x="494.40883" y="95.91092"/>
			<point x="359.74687" y="95.662" type="curve" smooth="yes"/>
			<point x="153.256" y="95.284" type="line"/>
			<point x="157.256" y="168.97391"/>
			<point x="176.71566" y="204.84418"/>
			<point x="191.74477" y="218.80588" type="curve"/>
			<point x="175.972" y="242.721" type="line"/>
			<point x="115.425" y="203.502"/>
			<point x="70.42" y="163.75138"/>
			<point x="70.42" y="116.99005" type="curve" smooth="yes"/>
			<point x="70.42" y="50.70936"/>
			<point x="121.86234" y="23.322"/>
			<point x="190.78434" y="23.16" type="curve"/>
			<point x="340.053" y="22.506" type="line"/>
			<point x="429.85457" y="22.506"/>
			<point x="463.28651" y="-0.55108"/>
			<point x="463.28651" y="-44.11564" type="curve" smooth="yes"/>
			<point x="463.28651" y="-106.15442"/>
			<point x="405.95797" y="-138.04"/>
			<point x="325.71919" y="-138.04" type="curve" smooth="yes"/>
			<point x="195.03968" y="-138.04"/>
			<point x="150.75182" y="-108.80656"/>
			<point x="150.75182" y="21.08371" type="curve" smooth="yes"/>
			<point x="150.75182" y="36.21584"/>
			<point x="151.2672" y="52.39679"/>
			<point x="152.256" y="69.284" type="curve"/>
			<point x="112.79387" y="63.82583"/>
			<point x="50.00454" y="27.99691"/>
			<point x="50.00454" y="-37.02252" type="curve" smooth="yes"/>
			<point x="50.00454" y="-149.74116"/>
			<point x="173.39661" y="-210.134"/>
		</contour>
		<contour>
			<point x="306.4465" y="164" type="curve" smooth="yes"/>
			<point x="407.68469" y="164"/>
			<point x="531.043" y="230.21568"/>
			<point x="531.043" y="389.11515" type="curve" smooth="yes"/>
			<point x="531.043" y="486.66315"/>
			<point x="451.06581" y="600"/>
			<point x="306.4465" y="600" type="curve" smooth="yes"/>
			<point x="201.31063" y="600"/>
			<point x="75.85" y="546.32375"/>
			<point x="75.85" y="369.56439" type="curve" smooth="yes"/>
			<point x="75.85" y="266.91939"/>
			<point x="161.88716" y="164"/>
		</contour>
		<contour>
			<point x="313.428" y="235.957" type="curve" smooth="yes"/>
			<point x="217.27778" y="235.957"/>
			<point x="178.003" y="273.94504"/>
			<point x="178.003" y="375.612" type="curve" smooth="yes"/>
			<point x="178.003" y="482.16815"/>
			<point x="218.01648" y="524"/>
			<point x="306.465" y="524" type="curve" smooth="yes"/>
			<point x="392.37307" y="524"/>
			<point x="429.9098" y="483.01649"/>
			<point x="429.90981" y="396.66754" type="curve" smooth="yes"/>
			<point x="429.90981" y="274.46644"/>
			<point x="391.87856" y="235.957"/>
		</contour>
		<contour>
			<point x="565.48151" y="531.98446" type="line"/>
			<point x="575.48151" y="599.98446" type="line"/>
			<point x="308.50451" y="599.98446" type="line"/>
			<point x="338.50451" y="553.31246" type="line"/>
			<point x="516.51951" y="532.04846" type="line"/>
		</contour>
	</outline>
</glyph>
<glyph name="j" format="2">
	<advance width="254"/>
	<unicode hex="006A"/>
	<outline>
		<contour>
			<point x="174" y="-56" type="curve" smooth="yes"/>
			<point x="185" y="-16"/>
			<point x="181" y="180"/>
			<point x="181" y="180" type="curve"/>
			<point x="181" y="590" type="line"/>
			<point x="181" y="590"/>
			<point x="72" y="580"/>
			<point x="72" y="580" type="curve"/>
			<point x="79" y="398" type="line"/>
			<point x="78" y="-23" type="line"/>
			<point x="79" y="-56"/>
			<point x="59" y="-88"/>
			<point x="43" y="-105" type="curve" smooth="yes"/>
			<point x="25" y="-125"/>
			<point x="-23" y="-155"/>
			<point x="-50" y="-158" type="curve"/>
			<point x="-19" y="-215" type="line"/>
			<point x="11" y="-213"/>
			<point x="92" y="-183"/>
			<point x="119" y="-155" type="curve" smooth="yes"/>
			<point x="146" y="-126"/>
			<point x="164" y="-93"/>
		</contour>
		<contour>
			<point x="126" y="678" type="curve" smooth="yes"/>
			<point x="165" y="678"/>
			<point x="194" y="710"/>
			<point x="194" y="749" type="curve" smooth="yes"/>
			<point x="194" y="789"/>
			<point x="165" y="820"/>
			<point x="126" y="820" type="curve" smooth="yes"/>
			<point x="87" y="820"/>
			<point x="58" y="789"/>
			<point x="58" y="749" type="curve" smooth="yes"/>
			<point x="58" y="710"/>
			<point x="87" y="678"/>
		</contour>
	</outline>
</glyph>
<glyph name="k" format="2">
	<advance width="598"/>
	<unicode hex="006B"/>
	<outline>
		<contour>
			<point x="98" y="100" type="line"/>
			<point x="543.62089" y="600.24452" type="line"/>
			<point x="422.55206" y="600.09917" type="line"/>
			<point x="120" y="250" type="line"/>
		</contour>
		<contour>
			<point x="60" y="0" type="line"/>
			<point x="169" y="0" type="line"/>
			<point x="169" y="837" type="line"/>
			<point x="60" y="827" type="line"/>
			<point x="66" y="618" type="line"/>
			<point x="66" y="117" type="line"/>
		</contour>
		<contour>
			<point x="442" y="0" type="line"/>
			<point x="563" y="0" type="line"/>
			<point x="475.90148" y="132.34282" type="line"/>
			<point x="307" y="403" type="line"/>
			<point x="240" y="327" type="line"/>
		</contour>
	</outline>
</glyph>
<glyph name="l" format="2">
	<advance width="236"/>
	<unicode hex="006C"/>
	<outline>
		<contour>
			<point x="66.99605" y="-4" type="line"/>
			<point x="175.99605" y="6" type="line"/>
			<point x="169.99605" y="102.35251" type="line"/>
			<point x="169.99605" y="825" type="line"/>
			<point x="169.99605" y="825"/>
			<point x="59.99605" y="815"/>
			<point x="59.99605" y="815" type="curve"/>
			<point x="59.99605" y="815"/>
			<point x="66.99605" y="633"/>
			<point x="66.99605" y="633" type="curve"/>
		</contour>
	</outline>
</glyph>
<glyph name="o" format="2">
	<advance width="639.19"/>
	<unicode hex="006F"/>
	<guideline x="-647.8" y="0" angle="0"/>
	<guideline x="17.2" y="298" angle="0"/>
	<guideline x="17.2" y="503" angle="0"/>
	<guideline x="17.2" y="195" angle="0"/>
	<guideline x="17.2" y="430" angle="0"/>
	<guideline x="281.2" y="0" angle="0"/>
	<guideline x="159.2" y="0" angle="0"/>
	<guideline x="409.2" y="0" angle="0"/>
	<guideline x="17.2" y="416" angle="0"/>
	<guideline x="17.2" y="-11" angle="0"/>
	<anchor x="327.84313" y="600" name="top"/>
	<anchor x="289.45415" y="176.00595" name="bottom"/>
	<anchor x="282" y="300" name="center"/>
	<anchor x="537.19" y="600" name="topright"/>
	<anchor x="502" y="10" name="ogonek"/>
	<outline>
		<contour>
			<point x="321.3795" y="-11" type="curve" smooth="yes"/>
			<point x="475.92005" y="-11"/>
			<point x="589.193" y="101.21318"/>
			<point x="589.193" y="295.04154" type="curve" smooth="yes"/>
			<point x="589.193" y="518.96933"/>
			<point x="471.92005" y="600.957"/>
			<point x="322.578" y="600.957" type="curve" smooth="yes"/>
			<point x="164.91663" y="600.957"/>
			<point x="50" y="505.96933"/>
			<point x="50" y="282.04154" type="curve" smooth="yes"/>
			<point x="50" y="88.21318"/>
			<point x="164.91663" y="-11"/>
		</contour>
		<contour>
			<point x="321.3795" y="62.957" type="curve" smooth="yes"/>
			<point x="211.91663" y="62.957"/>
			<point x="153.153" y="127.321"/>
			<point x="153.153" y="296.04154" type="curve" smooth="yes"/>
			<point x="153.153" y="453.08311"/>
			<point x="204.91663" y="527.043"/>
			<point x="322.578" y="527.043" type="curve" smooth="yes"/>
			<point x="421.40011" y="527.043"/>
			<point x="482.04" y="467.178"/>
			<point x="482.04" y="296.345" type="curve" smooth="yes"/>
			<point x="482.04" y="175.197"/>
			<point x="443.43998" y="62.957"/>
		</contour>
	</outline>
</glyph>
<glyph name="q" format="2">
	<advance width="648"/>
	<unicode hex="0071"/>
	<guideline x="-15.83" y="520" angle="0"/>
	<guideline x="-15.83" y="83" angle="0"/>
	<guideline x="-15.83" y="553" angle="0"/>
	<outline>
		<contour>
			<point x="325.00255" y="-12" type="curve" smooth="yes"/>
			<point x="457.00255" y="-12"/>
			<point x="517.00255" y="51"/>
			<point x="517.00255" y="51" type="curve"/>
			<point x="495.00255" y="115" type="line"/>
			<point x="495.00255" y="115"/>
			<point x="441.45425" y="65"/>
			<point x="325.00255" y="65" type="curve" smooth="yes"/>
			<point x="218.00255" y="65"/>
			<point x="153.00255" y="138"/>
			<point x="153.00255" y="306" type="curve" smooth="yes"/>
			<point x="153.00255" y="472"/>
			<point x="239.37379" y="528"/>
			<point x="320.00255" y="528" type="curve" smooth="yes"/>
			<point x="412.00255" y="528"/>
			<point x="495.00255" y="457"/>
			<point x="495.00255" y="454" type="curve"/>
			<point x="523.00255" y="506" type="line"/>
			<point x="523.00255" y="506"/>
			<point x="456.00255" y="600"/>
			<point x="318.00255" y="600" type="curve" smooth="yes"/>
			<point x="165.00255" y="600"/>
			<point x="50.00255" y="490"/>
			<point x="50.00255" y="299" type="curve" smooth="yes"/>
			<point x="50.00255" y="124"/>
			<point x="146.00255" y="-12"/>
		</contour>
		<contour>
			<point x="588.00255" y="-237" type="line"/>
			<point x="582.00255" y="-122" type="line"/>
			<point x="582.00255" y="405.69288" type="line"/>
			<point x="588.00255" y="590" type="line"/>
			<point x="505.00255" y="583" type="line"/>
			<point x="479.00255" y="515" type="line"/>
			<point x="479.00255" y="-237" type="line"/>
		</contour>
	</outline>
</glyph>
<glyph name="r" format="2">
	<advance width="432.69"/>
	<unicode hex="0072"/>
	<outline>
		<contour>
			<point x="60.84236" y="0.413" type="line"/>
			<point x="66.938" y="116.779" type="line"/>
			<point x="66.933" y="398.287" type="line"/>
			<point x="59.99969" y="579.43555" type="line"/>
			<point x="168.66" y="589.92" type="line"/>
			<point x="168.323" y="0.413" type="line"/>
		</contour>
		<contour>
			<point x="159.95858" y="421.36165" type="curve"/>
			<point x="125.75563" y="449.73293" type="line"/>
			<point x="145.27056" y="492.17017"/>
			<point x="218.83376" y="600.917"/>
			<point x="302.63963" y="600.917" type="curve" smooth="yes"/>
			<point x="343.04465" y="600.917"/>
			<point x="386.87572" y="585.603"/>
			<point x="402.69" y="570" type="curve"/>
			<point x="381.40483" y="497.5943" type="line"/>
			<point x="359.88623" y="509.543"/>
			<point x="324.94698" y="521"/>
			<point x="291.35383" y="521" type="curve" smooth="yes"/>
			<point x="219.53148" y="521"/>
			<point x="186.24038" y="462.35619"/>
		</contour>
	</outline>
</glyph>
<glyph name="u" format="2">
	<advance width="626.5"/>
	<unicode hex="0075"/>
	<anchor x="314.69" y="600" name="top"/>
	<anchor x="283.69" y="0" name="bottom"/>
	<anchor x="508.69" y="10" name="ogonek"/>
	<anchor x="544.5" y="600" name="topright"/>
	<outline>
		<contour>
			<point x="168.69" y="590" type="line"/>
			<point x="60.0029" y="590" type="line"/>
			<point x="66.69" y="465.539" type="line"/>
			<point x="66.69" y="152" type="line"/>
			<point x="66.69" y="42.4"/>
			<point x="181.89" y="-11"/>
			<point x="263.69" y="-11" type="curve" smooth="yes"/>
			<point x="356.69" y="-11"/>
			<point x="482.61578" y="88.22656"/>
			<point x="500.61578" y="101.22656" type="curve"/>
			<point x="473.61578" y="150.22656" type="line"/>
			<point x="466.61578" y="141.22656"/>
			<point x="378.69" y="76"/>
			<point x="277.69" y="76" type="curve" smooth="yes"/>
			<point x="231.69" y="76"/>
			<point x="168.69" y="114.883"/>
			<point x="168.69" y="163" type="curve" smooth="yes"/>
		</contour>
		<contour>
			<point x="471.69" y="-1" type="line"/>
			<point x="566.502" y="-1" type="line"/>
			<point x="551.516" y="159.888" type="line"/>
			<point x="551.516" y="590" type="line"/>
			<point x="448.057" y="589.891" type="line"/>
			<point x="448.69" y="86" type="line"/>
		</contour>
	</outline>
</glyph>
<glyph name="v" format="2">
	<advance width="628.68"/>
	<unicode hex="0076"/>
	<outline>
		<contour>
			<point x="588.68483" y="587.39373" type="line"/>
			<point x="480.70398" y="587.39373" type="line"/>
			<point x="321.418" y="99.95" type="line"/>
			<point x="307.268" y="99.95" type="line"/>
			<point x="151.06497" y="587.39367" type="line"/>
			<point x="40.00248" y="587.39373" type="line"/>
			<point x="88.82899" y="460.31363" type="line"/>
			<point x="247.201" y="0" type="line"/>
			<point x="378.446" y="0" type="line"/>
			<point x="540.50991" y="463.97188" type="line"/>
		</contour>
	</outline>
</glyph>
<glyph name="z" format="2">
	<advance width="549"/>
	<unicode hex="007A"/>
	<outline>
		<contour>
			<point x="52.46094" y="587.91071" type="line"/>
			<point x="498" y="588.15331" type="line"/>
			<point x="498" y="516.90625" type="line"/>
			<point x="170.33007" y="74.90237" type="line"/>
			<point x="383.90742" y="75" type="line"/>
			<point x="499" y="81" type="line"/>
			<point x="499" y="0" type="line"/>
			<point x="50" y="0" type="line"/>
			<point x="50" y="69" type="line"/>
			<point x="391.59068" y="512.25502" type="line"/>
			<point x="179.1489" y="512" type="line"/>
			<point x="53" y="506" type="line"/>
		</contour>
	</outline>
</glyph>
<glyph name="acute" format="2">
	<advance width="174.41"/>
	<unicode hex="00B4"/>
	<anchor x="-50.06844" y="600" name="_top"/>
	<outline>
		<contour>
			<point x="-179.12266" y="685.66447" type="line"/>
			<point x="40.17712" y="854.03111" type="line"/>
			<point x="95.13234" y="780.96947" type="line"/>
			<point x="-146.77344" y="644.28125" type="line"/>
		</contour>
	</outline>
</glyph>
<glyph name="idotless" format="2">
	<advance width="276.24"/>
	<unicode hex="0131"/>
	<anchor x="164.293" y="600" name="top"/>
	<anchor x="138" y="0" name="bottom"/>
	<anchor x="249" y="10" name="ogonek"/>
	<outline>
		<contour>
			<point x="106.856" y="0.413" type="line"/>
			<point x="217.095" y="0.413" type="line"/>
			<point x="217.432" y="589.92" type="line"/>
			<point x="107.705" y="580.023" type="line"/>
			<point x="114.705" y="398.287" type="line"/>
			<point x="114.71" y="116.779" type="line"/>
		</contour>
	</outline>
</glyph>
